<svg xmlns="http://www.w3.org/2000/svg" xmlns:xlink="http://www.w3.org/1999/xlink" viewBox="0,0,256,256" width="80px" height="80px" fill-rule="nonzero"><g fill="none" fill-rule="nonzero" stroke="none" stroke-width="1" stroke-linecap="butt" stroke-linejoin="miter" stroke-miterlimit="10" stroke-dasharray="" stroke-dashoffset="0" font-family="none" font-weight="none" font-size="none" text-anchor="none" style="mix-blend-mode: normal"><g transform="scale(8.53333,8.53333)"><path d="M2.931,28.5c-0.382,0 -0.742,-0.149 -1.012,-0.419c-0.558,-0.558 -0.558,-1.466 0,-2.024l14.007,-13.353l1.375,1.377l-13.366,14.008c-0.262,0.262 -0.622,0.411 -1.004,0.411z" fill="#b6c9d6"></path><path d="M15.917,13.403l0.685,0.686l-13.013,13.638c-0.176,0.176 -0.409,0.273 -0.658,0.273c-0.249,0 -0.482,-0.097 -0.658,-0.273c-0.363,-0.363 -0.363,-0.953 -0.017,-1.3l13.661,-13.024M15.934,12.005l-14.369,13.699c-0.754,0.754 -0.754,1.977 0,2.731c0.378,0.376 0.872,0.565 1.366,0.565c0.494,0 0.988,-0.189 1.365,-0.566l13.704,-14.361l-2.066,-2.068z" fill="#c7ccd1"></path><g><path d="M19,20.5c-5.238,0 -9.5,-4.262 -9.5,-9.5c0,-5.238 4.262,-9.5 9.5,-9.5c5.238,0 9.5,4.262 9.5,9.5c0,5.238 -4.262,9.5 -9.5,9.5z" fill="#ffffff"></path><path d="M19,2c4.963,0 9,4.037 9,9c0,4.963 -4.037,9 -9,9c-4.963,0 -9,-4.037 -9,-9c0,-4.963 4.037,-9 9,-9M19,1c-5.523,0 -10,4.477 -10,10c0,5.523 4.477,10 10,10c5.523,0 10,-4.477 10,-10c0,-5.523 -4.477,-10 -10,-10z" fill="#c7ccd1"></path></g></g></g></svg>